# xmcd CD database file
#
# Track frame offsets:
#	150
#	18806
#	31365
#	47519
#	61536
#	76374
#	95976
#	111748
#	126015
#	136534
#	149812
#	163813
#	178901
#	191617
#
# Disc length: 2729 seconds
#
# Revision: 0
# Processed by: cddbd v1.5.1PL2 Copyright (c) Steve Scherf et al.
# Submitted via: CDex 1.51
#
DISCID=c40aa70e
DTITLE=LOUISE MORRISSEY - LOUISE
DYEAR=1900
DGENRE=Country
TTITLE0=COTTAGE IN THE COUNTRY
TTITLE1=BLUE EYES CRYING IN THE RAIN
TTITLE2=OLD FLAMES
TTITLE3=NIGHT DANIEL O'DONNELL CAME TO TOWN
TTITLE4=SVE THE LAST DANCE FOR ME
TTITLE5=HILL OF KILLINAULE
TTITLE6=IF YOU WERE  GONE ' WHERE WOULD THAT LEAVE ME
TTITLE7=TIPPERARY ON MY MIND
TTITLE8=TENNESSEE WALTZ
TTITLE9=NEW PORT TOWN
TTITLE10=SOME JUST LIKE YOU
TTITLE11=JAMBALAYA
TTITLE12=LOVE SONG FOR YOU
TTITLE13=WORLD APART
EXTD=
EXTT0=
EXTT1=
EXTT2=
EXTT3=
EXTT4=
EXTT5=
EXTT6=
EXTT7=
EXTT8=
EXTT9=
EXTT10=
EXTT11=
EXTT12=
EXTT13=
PLAYORDER=
